<mxfile host="app.diagrams.net" modified="2024-04-07T07:33:22.095Z" agent="Mozilla/5.0 (Windows NT 10.0; Win64; x64; rv:124.0) Gecko/20100101 Firefox/124.0" etag="8TjzCxeQ12VopuORXgwp" version="24.2.0" type="github">
  <diagram name="第 1 页" id="7U7vI_ymb39M9vJWkqa7">
    <mxGraphModel dx="2514" dy="887" grid="1" gridSize="10" guides="1" tooltips="1" connect="1" arrows="1" fold="1" page="1" pageScale="1" pageWidth="827" pageHeight="1169" math="0" shadow="0">
      <root>
        <mxCell id="0" />
        <mxCell id="1" parent="0" />
        <mxCell id="dyZmSXLRvPk39drkrDrn-3" style="edgeStyle=orthogonalEdgeStyle;rounded=0;orthogonalLoop=1;jettySize=auto;html=1;entryX=0;entryY=0.5;entryDx=0;entryDy=0;" edge="1" parent="1" target="dyZmSXLRvPk39drkrDrn-2">
          <mxGeometry relative="1" as="geometry">
            <mxPoint x="300" y="250" as="sourcePoint" />
          </mxGeometry>
        </mxCell>
        <mxCell id="dyZmSXLRvPk39drkrDrn-11" value="匹配" style="edgeLabel;html=1;align=center;verticalAlign=middle;resizable=0;points=[];" vertex="1" connectable="0" parent="dyZmSXLRvPk39drkrDrn-3">
          <mxGeometry x="-0.0273" y="-1" relative="1" as="geometry">
            <mxPoint as="offset" />
          </mxGeometry>
        </mxCell>
        <mxCell id="dyZmSXLRvPk39drkrDrn-2" value="&lt;div&gt;加密ID/KEY&lt;/div&gt;" style="rounded=0;whiteSpace=wrap;html=1;" vertex="1" parent="1">
          <mxGeometry x="390" y="220" width="120" height="60" as="geometry" />
        </mxCell>
        <mxCell id="dyZmSXLRvPk39drkrDrn-45" style="edgeStyle=orthogonalEdgeStyle;rounded=0;orthogonalLoop=1;jettySize=auto;html=1;entryX=1;entryY=0.5;entryDx=0;entryDy=0;" edge="1" parent="1" source="dyZmSXLRvPk39drkrDrn-6" target="dyZmSXLRvPk39drkrDrn-40">
          <mxGeometry relative="1" as="geometry">
            <Array as="points">
              <mxPoint x="720" y="60" />
            </Array>
          </mxGeometry>
        </mxCell>
        <mxCell id="dyZmSXLRvPk39drkrDrn-46" value="获得secretId和secretKey并解密" style="edgeLabel;html=1;align=center;verticalAlign=middle;resizable=0;points=[];" vertex="1" connectable="0" parent="dyZmSXLRvPk39drkrDrn-45">
          <mxGeometry x="0.5296" y="-1" relative="1" as="geometry">
            <mxPoint x="25" y="1" as="offset" />
          </mxGeometry>
        </mxCell>
        <mxCell id="dyZmSXLRvPk39drkrDrn-6" value="cloud_account数据库" style="shape=cylinder3;whiteSpace=wrap;html=1;boundedLbl=1;backgroundOutline=1;size=15;" vertex="1" parent="1">
          <mxGeometry x="670" y="210" width="100" height="80" as="geometry" />
        </mxCell>
        <mxCell id="dyZmSXLRvPk39drkrDrn-7" style="edgeStyle=orthogonalEdgeStyle;rounded=0;orthogonalLoop=1;jettySize=auto;html=1;entryX=-0.075;entryY=0.504;entryDx=0;entryDy=0;entryPerimeter=0;" edge="1" parent="1" source="dyZmSXLRvPk39drkrDrn-2" target="dyZmSXLRvPk39drkrDrn-6">
          <mxGeometry relative="1" as="geometry" />
        </mxCell>
        <mxCell id="dyZmSXLRvPk39drkrDrn-14" style="edgeStyle=orthogonalEdgeStyle;rounded=0;orthogonalLoop=1;jettySize=auto;html=1;entryX=0;entryY=0.5;entryDx=0;entryDy=0;" edge="1" parent="1" source="dyZmSXLRvPk39drkrDrn-8" target="dyZmSXLRvPk39drkrDrn-10">
          <mxGeometry relative="1" as="geometry" />
        </mxCell>
        <mxCell id="dyZmSXLRvPk39drkrDrn-17" style="edgeStyle=orthogonalEdgeStyle;rounded=0;orthogonalLoop=1;jettySize=auto;html=1;exitX=0.5;exitY=1;exitDx=0;exitDy=0;entryX=0.5;entryY=0;entryDx=0;entryDy=0;" edge="1" parent="1" source="dyZmSXLRvPk39drkrDrn-8" target="dyZmSXLRvPk39drkrDrn-15">
          <mxGeometry relative="1" as="geometry" />
        </mxCell>
        <mxCell id="dyZmSXLRvPk39drkrDrn-8" value="前端输入ID/KEY" style="rounded=0;whiteSpace=wrap;html=1;" vertex="1" parent="1">
          <mxGeometry x="-60" y="220" width="120" height="60" as="geometry" />
        </mxCell>
        <mxCell id="dyZmSXLRvPk39drkrDrn-12" style="edgeStyle=orthogonalEdgeStyle;rounded=0;orthogonalLoop=1;jettySize=auto;html=1;entryX=0.5;entryY=0;entryDx=0;entryDy=0;" edge="1" parent="1" source="dyZmSXLRvPk39drkrDrn-10" target="dyZmSXLRvPk39drkrDrn-8">
          <mxGeometry relative="1" as="geometry">
            <Array as="points">
              <mxPoint x="230" y="180" />
              <mxPoint y="180" />
            </Array>
          </mxGeometry>
        </mxCell>
        <mxCell id="dyZmSXLRvPk39drkrDrn-13" value="不匹配：报错" style="edgeLabel;html=1;align=center;verticalAlign=middle;resizable=0;points=[];" vertex="1" connectable="0" parent="dyZmSXLRvPk39drkrDrn-12">
          <mxGeometry x="-0.006" y="-1" relative="1" as="geometry">
            <mxPoint as="offset" />
          </mxGeometry>
        </mxCell>
        <mxCell id="dyZmSXLRvPk39drkrDrn-10" value="校验ID/KEY是否匹配" style="rhombus;whiteSpace=wrap;html=1;" vertex="1" parent="1">
          <mxGeometry x="160" y="210" width="140" height="80" as="geometry" />
        </mxCell>
        <mxCell id="dyZmSXLRvPk39drkrDrn-16" style="edgeStyle=orthogonalEdgeStyle;rounded=0;orthogonalLoop=1;jettySize=auto;html=1;entryX=0.5;entryY=1;entryDx=0;entryDy=0;" edge="1" parent="1" source="dyZmSXLRvPk39drkrDrn-15" target="dyZmSXLRvPk39drkrDrn-10">
          <mxGeometry relative="1" as="geometry" />
        </mxCell>
        <mxCell id="dyZmSXLRvPk39drkrDrn-15" value="连通检测按钮" style="rounded=0;whiteSpace=wrap;html=1;" vertex="1" parent="1">
          <mxGeometry x="-60" y="330" width="120" height="60" as="geometry" />
        </mxCell>
        <mxCell id="dyZmSXLRvPk39drkrDrn-19" style="edgeStyle=orthogonalEdgeStyle;rounded=0;orthogonalLoop=1;jettySize=auto;html=1;exitX=0.5;exitY=0;exitDx=0;exitDy=0;entryX=0.683;entryY=0;entryDx=0;entryDy=0;entryPerimeter=0;" edge="1" parent="1" source="dyZmSXLRvPk39drkrDrn-10" target="dyZmSXLRvPk39drkrDrn-8">
          <mxGeometry relative="1" as="geometry" />
        </mxCell>
        <mxCell id="dyZmSXLRvPk39drkrDrn-20" value="匹配：显示校验成功" style="edgeLabel;html=1;align=center;verticalAlign=middle;resizable=0;points=[];" vertex="1" connectable="0" parent="dyZmSXLRvPk39drkrDrn-19">
          <mxGeometry x="0.0837" y="1" relative="1" as="geometry">
            <mxPoint as="offset" />
          </mxGeometry>
        </mxCell>
        <mxCell id="dyZmSXLRvPk39drkrDrn-21" value="获得list" style="rounded=0;whiteSpace=wrap;html=1;" vertex="1" parent="1">
          <mxGeometry x="390" y="450" width="120" height="60" as="geometry" />
        </mxCell>
        <mxCell id="dyZmSXLRvPk39drkrDrn-22" style="edgeStyle=orthogonalEdgeStyle;rounded=0;orthogonalLoop=1;jettySize=auto;html=1;entryX=0.5;entryY=1;entryDx=0;entryDy=0;entryPerimeter=0;" edge="1" parent="1" source="dyZmSXLRvPk39drkrDrn-21" target="dyZmSXLRvPk39drkrDrn-6">
          <mxGeometry relative="1" as="geometry" />
        </mxCell>
        <mxCell id="dyZmSXLRvPk39drkrDrn-39" value="不获得secretId和secretKey" style="edgeLabel;html=1;align=center;verticalAlign=middle;resizable=0;points=[];" vertex="1" connectable="0" parent="dyZmSXLRvPk39drkrDrn-22">
          <mxGeometry x="-0.51" relative="1" as="geometry">
            <mxPoint as="offset" />
          </mxGeometry>
        </mxCell>
        <mxCell id="dyZmSXLRvPk39drkrDrn-23" value="cloud_account" style="swimlane;fontStyle=0;childLayout=stackLayout;horizontal=1;startSize=30;horizontalStack=0;resizeParent=1;resizeParentMax=0;resizeLast=0;collapsible=1;marginBottom=0;whiteSpace=wrap;html=1;" vertex="1" parent="1">
          <mxGeometry x="870" y="140" width="140" height="330" as="geometry">
            <mxRectangle x="870" y="140" width="120" height="30" as="alternateBounds" />
          </mxGeometry>
        </mxCell>
        <mxCell id="dyZmSXLRvPk39drkrDrn-24" value="account_name" style="text;strokeColor=none;fillColor=none;align=left;verticalAlign=middle;spacingLeft=4;spacingRight=4;overflow=hidden;points=[[0,0.5],[1,0.5]];portConstraint=eastwest;rotatable=0;whiteSpace=wrap;html=1;" vertex="1" parent="dyZmSXLRvPk39drkrDrn-23">
          <mxGeometry y="30" width="140" height="30" as="geometry" />
        </mxCell>
        <mxCell id="dyZmSXLRvPk39drkrDrn-25" value="运营商" style="text;strokeColor=none;fillColor=none;align=left;verticalAlign=middle;spacingLeft=4;spacingRight=4;overflow=hidden;points=[[0,0.5],[1,0.5]];portConstraint=eastwest;rotatable=0;whiteSpace=wrap;html=1;" vertex="1" parent="dyZmSXLRvPk39drkrDrn-23">
          <mxGeometry y="60" width="140" height="30" as="geometry" />
        </mxCell>
        <mxCell id="dyZmSXLRvPk39drkrDrn-29" value="update_people" style="text;strokeColor=none;fillColor=none;align=left;verticalAlign=middle;spacingLeft=4;spacingRight=4;overflow=hidden;points=[[0,0.5],[1,0.5]];portConstraint=eastwest;rotatable=0;whiteSpace=wrap;html=1;" vertex="1" parent="dyZmSXLRvPk39drkrDrn-23">
          <mxGeometry y="90" width="140" height="30" as="geometry" />
        </mxCell>
        <mxCell id="dyZmSXLRvPk39drkrDrn-30" value="update_time" style="text;strokeColor=none;fillColor=none;align=left;verticalAlign=middle;spacingLeft=4;spacingRight=4;overflow=hidden;points=[[0,0.5],[1,0.5]];portConstraint=eastwest;rotatable=0;whiteSpace=wrap;html=1;" vertex="1" parent="dyZmSXLRvPk39drkrDrn-23">
          <mxGeometry y="120" width="140" height="30" as="geometry" />
        </mxCell>
        <mxCell id="dyZmSXLRvPk39drkrDrn-31" value="同步时间" style="text;strokeColor=none;fillColor=none;align=left;verticalAlign=middle;spacingLeft=4;spacingRight=4;overflow=hidden;points=[[0,0.5],[1,0.5]];portConstraint=eastwest;rotatable=0;whiteSpace=wrap;html=1;" vertex="1" parent="dyZmSXLRvPk39drkrDrn-23">
          <mxGeometry y="150" width="140" height="30" as="geometry" />
        </mxCell>
        <mxCell id="dyZmSXLRvPk39drkrDrn-32" value="status" style="text;strokeColor=none;fillColor=none;align=left;verticalAlign=middle;spacingLeft=4;spacingRight=4;overflow=hidden;points=[[0,0.5],[1,0.5]];portConstraint=eastwest;rotatable=0;whiteSpace=wrap;html=1;" vertex="1" parent="dyZmSXLRvPk39drkrDrn-23">
          <mxGeometry y="180" width="140" height="30" as="geometry" />
        </mxCell>
        <mxCell id="dyZmSXLRvPk39drkrDrn-33" value="secretId" style="text;strokeColor=none;fillColor=none;align=left;verticalAlign=middle;spacingLeft=4;spacingRight=4;overflow=hidden;points=[[0,0.5],[1,0.5]];portConstraint=eastwest;rotatable=0;whiteSpace=wrap;html=1;" vertex="1" parent="dyZmSXLRvPk39drkrDrn-23">
          <mxGeometry y="210" width="140" height="30" as="geometry" />
        </mxCell>
        <mxCell id="dyZmSXLRvPk39drkrDrn-34" value="secretKey" style="text;strokeColor=none;fillColor=none;align=left;verticalAlign=middle;spacingLeft=4;spacingRight=4;overflow=hidden;points=[[0,0.5],[1,0.5]];portConstraint=eastwest;rotatable=0;whiteSpace=wrap;html=1;" vertex="1" parent="dyZmSXLRvPk39drkrDrn-23">
          <mxGeometry y="240" width="140" height="30" as="geometry" />
        </mxCell>
        <mxCell id="dyZmSXLRvPk39drkrDrn-35" style="text;strokeColor=none;fillColor=none;align=left;verticalAlign=middle;spacingLeft=4;spacingRight=4;overflow=hidden;points=[[0,0.5],[1,0.5]];portConstraint=eastwest;rotatable=0;whiteSpace=wrap;html=1;" vertex="1" parent="dyZmSXLRvPk39drkrDrn-23">
          <mxGeometry y="270" width="140" height="30" as="geometry" />
        </mxCell>
        <mxCell id="dyZmSXLRvPk39drkrDrn-36" style="text;strokeColor=none;fillColor=none;align=left;verticalAlign=middle;spacingLeft=4;spacingRight=4;overflow=hidden;points=[[0,0.5],[1,0.5]];portConstraint=eastwest;rotatable=0;whiteSpace=wrap;html=1;" vertex="1" parent="dyZmSXLRvPk39drkrDrn-23">
          <mxGeometry y="300" width="140" height="30" as="geometry" />
        </mxCell>
        <mxCell id="dyZmSXLRvPk39drkrDrn-40" value="&amp;nbsp;编辑" style="rounded=0;whiteSpace=wrap;html=1;" vertex="1" parent="1">
          <mxGeometry x="390" y="30" width="120" height="60" as="geometry" />
        </mxCell>
        <mxCell id="dyZmSXLRvPk39drkrDrn-47" value="未分配的server" style="shape=cylinder3;whiteSpace=wrap;html=1;boundedLbl=1;backgroundOutline=1;size=15;" vertex="1" parent="1">
          <mxGeometry x="-80" y="700" width="170" height="100" as="geometry" />
        </mxCell>
        <mxCell id="dyZmSXLRvPk39drkrDrn-55" style="edgeStyle=orthogonalEdgeStyle;rounded=0;orthogonalLoop=1;jettySize=auto;html=1;" edge="1" parent="1" source="dyZmSXLRvPk39drkrDrn-48" target="dyZmSXLRvPk39drkrDrn-54">
          <mxGeometry relative="1" as="geometry" />
        </mxCell>
        <mxCell id="dyZmSXLRvPk39drkrDrn-56" value="2.新建" style="edgeLabel;html=1;align=center;verticalAlign=middle;resizable=0;points=[];" vertex="1" connectable="0" parent="dyZmSXLRvPk39drkrDrn-55">
          <mxGeometry x="-0.3355" y="2" relative="1" as="geometry">
            <mxPoint as="offset" />
          </mxGeometry>
        </mxCell>
        <mxCell id="dyZmSXLRvPk39drkrDrn-48" value="分配服务器按钮" style="rounded=0;whiteSpace=wrap;html=1;" vertex="1" parent="1">
          <mxGeometry x="370" y="720" width="120" height="60" as="geometry" />
        </mxCell>
        <mxCell id="dyZmSXLRvPk39drkrDrn-51" style="edgeStyle=orthogonalEdgeStyle;rounded=0;orthogonalLoop=1;jettySize=auto;html=1;exitX=0;exitY=0.5;exitDx=0;exitDy=0;entryX=1;entryY=0.5;entryDx=0;entryDy=0;entryPerimeter=0;" edge="1" parent="1">
          <mxGeometry relative="1" as="geometry">
            <mxPoint x="369" y="750" as="sourcePoint" />
            <mxPoint x="89" y="750" as="targetPoint" />
          </mxGeometry>
        </mxCell>
        <mxCell id="dyZmSXLRvPk39drkrDrn-52" value="1.获得数据并设置is_delete" style="edgeLabel;html=1;align=center;verticalAlign=middle;resizable=0;points=[];" vertex="1" connectable="0" parent="dyZmSXLRvPk39drkrDrn-51">
          <mxGeometry x="0.0706" y="3" relative="1" as="geometry">
            <mxPoint as="offset" />
          </mxGeometry>
        </mxCell>
        <mxCell id="dyZmSXLRvPk39drkrDrn-54" value="当前的server" style="shape=cylinder3;whiteSpace=wrap;html=1;boundedLbl=1;backgroundOutline=1;size=15;" vertex="1" parent="1">
          <mxGeometry x="740" y="700" width="170" height="100" as="geometry" />
        </mxCell>
      </root>
    </mxGraphModel>
  </diagram>
</mxfile>
